<?xml version="1.0" encoding="UTF-8" standalone="no"?>
<!-- Generated by IcoMoon.io -->

<svg
   xmlns:dc="http://purl.org/dc/elements/1.1/"
   xmlns:cc="http://creativecommons.org/ns#"
   xmlns:rdf="http://www.w3.org/1999/02/22-rdf-syntax-ns#"
   xmlns:svg="http://www.w3.org/2000/svg"
   xmlns="http://www.w3.org/2000/svg"
   xmlns:sodipodi="http://sodipodi.sourceforge.net/DTD/sodipodi-0.dtd"
   xmlns:inkscape="http://www.inkscape.org/namespaces/inkscape"
   version="1.1"
   width="64"
   height="64"
   viewBox="0 0 64 64"
   id="svg1171"
   sodipodi:docname="0121-quotes-right.svg"
   inkscape:version="0.92.4 (5da689c313, 2019-01-14)">
  <metadata
     id="metadata1177">
    <rdf:RDF>
      <cc:Work
         rdf:about="">
        <dc:format>image/svg+xml</dc:format>
        <dc:type
           rdf:resource="http://purl.org/dc/dcmitype/StillImage" />
      </cc:Work>
    </rdf:RDF>
  </metadata>
  <defs
     id="defs1175" />
  <sodipodi:namedview
     pagecolor="#ffffff"
     bordercolor="#666666"
     borderopacity="1"
     objecttolerance="10"
     gridtolerance="10"
     guidetolerance="10"
     inkscape:pageopacity="0"
     inkscape:pageshadow="2"
     inkscape:window-width="2490"
     inkscape:window-height="1376"
     id="namedview1173"
     showgrid="false"
     inkscape:zoom="3.6875"
     inkscape:cx="-57.220339"
     inkscape:cy="30.915254"
     inkscape:window-x="70"
     inkscape:window-y="27"
     inkscape:window-maximized="1"
     inkscape:current-layer="svg1171" />
  <rect
     style="fill:#0066cc;fill-opacity:1;stroke:#ffffff;stroke-width:0;stroke-linejoin:bevel;stroke-miterlimit:4;stroke-dasharray:none;stroke-opacity:1"
     id="rect873"
     width="66.711868"
     height="64.271187"
     x="-2.1694915"
     y="0.27118644" />
  <path
     d="M50 40c-7.732 0-14-6.268-14-14s6.268-14 14-14 14 6.268 14 14l0.063 2c0 15.464-12.536 28-28 28v-8c5.342 0 10.365-2.080 14.142-5.858 0.727-0.727 1.391-1.501 1.989-2.314-0.715 0.112-1.447 0.172-2.194 0.172zM14 40c-7.732 0-14-6.268-14-14s6.268-14 14-14 14 6.268 14 14l0.063 2c0 15.464-12.536 28-28 28v-8c5.342 0 10.365-2.080 14.142-5.858 0.727-0.727 1.391-1.501 1.989-2.314-0.715 0.112-1.447 0.172-2.194 0.172z"
     fill="#000000"
     id="path1169"
     style="fill:#ffffff;fill-opacity:1;stroke:none;stroke-opacity:1" />
</svg>
