<?xml version="1.0" encoding="UTF-8" standalone="no"?>
<!-- Generated by IcoMoon.io -->

<svg
   xmlns:dc="http://purl.org/dc/elements/1.1/"
   xmlns:cc="http://creativecommons.org/ns#"
   xmlns:rdf="http://www.w3.org/1999/02/22-rdf-syntax-ns#"
   xmlns:svg="http://www.w3.org/2000/svg"
   xmlns="http://www.w3.org/2000/svg"
   xmlns:sodipodi="http://sodipodi.sourceforge.net/DTD/sodipodi-0.dtd"
   xmlns:inkscape="http://www.inkscape.org/namespaces/inkscape"
   version="1.1"
   width="64"
   height="64"
   viewBox="0 0 64 64"
   id="svg1171"
   sodipodi:docname="0121-quotes-right.svg"
   inkscape:version="0.92.4 (5da689c313, 2019-01-14)">
  <metadata
     id="metadata1177">
    <rdf:RDF>
      <cc:Work
         rdf:about="">
        <dc:format>image/svg+xml</dc:format>
        <dc:type
           rdf:resource="http://purl.org/dc/dcmitype/StillImage" />
      </cc:Work>
    </rdf:RDF>
  </metadata>
  <defs
     id="defs1175" />
  <sodipodi:namedview
     pagecolor="#ffffff"
     bordercolor="#666666"
     borderopacity="1"
     objecttolerance="10"
     gridtolerance="10"
     guidetolerance="10"
     inkscape:pageopacity="0"
     inkscape:pageshadow="2"
     inkscape:window-width="2132"
     inkscape:window-height="744"
     id="namedview1173"
     showgrid="false"
     inkscape:zoom="3.6875"
     inkscape:cx="-116.74576"
     inkscape:cy="30.915254"
     inkscape:window-x="223"
     inkscape:window-y="556"
     inkscape:window-maximized="0"
     inkscape:current-layer="svg1171" />
  <g
     id="g2174">
    <rect
       y="0.27118644"
       x="-2.1694915"
       height="64.271187"
       width="66.711868"
       id="rect873"
       style="fill:#0066cc;fill-opacity:1;stroke:#ffffff;stroke-width:0;stroke-linejoin:bevel;stroke-miterlimit:4;stroke-dasharray:none;stroke-opacity:1" />
    <path
       style="fill:#ffffff;fill-opacity:1;stroke:none;stroke-opacity:1"
       id="path1169"
       d="m 50,40 c -7.732,0 -14,-6.268 -14,-14 0,-7.732 6.268,-14 14,-14 7.732,0 14,6.268 14,14 l 0.063,2 c 0,15.464 -12.536,28 -28,28 v -8 c 5.342,0 10.365,-2.08 14.142,-5.858 0.727,-0.727 1.391,-1.501 1.989,-2.314 C 51.479,39.94 50.747,40 50,40 Z M 14,40 C 6.268,40 0,33.732 0,26 0,18.268 6.268,12 14,12 c 7.732,0 14,6.268 14,14 l 0.063,2 c 0,15.464 -12.536,28 -28,28 v -8 c 5.342,0 10.365,-2.08 14.142,-5.858 0.727,-0.727 1.391,-1.501 1.989,-2.314 C 15.479,39.94 14.747,40 14,40 Z"
       inkscape:connector-curvature="0" />
  </g>
</svg>
