<?xml version="1.0" encoding="UTF-8" standalone="no"?>
<!-- Generated by IcoMoon.io -->

<svg
   xmlns:osb="http://www.openswatchbook.org/uri/2009/osb"
   xmlns:dc="http://purl.org/dc/elements/1.1/"
   xmlns:cc="http://creativecommons.org/ns#"
   xmlns:rdf="http://www.w3.org/1999/02/22-rdf-syntax-ns#"
   xmlns:svg="http://www.w3.org/2000/svg"
   xmlns="http://www.w3.org/2000/svg"
   xmlns:xlink="http://www.w3.org/1999/xlink"
   xmlns:sodipodi="http://sodipodi.sourceforge.net/DTD/sodipodi-0.dtd"
   xmlns:inkscape="http://www.inkscape.org/namespaces/inkscape"
   version="1.1"
   width="64"
   height="64"
   viewBox="0 0 64 64"
   id="svg4"
   sodipodi:docname="sonntagszeitung.svg"
   inkscape:version="0.92.4 (5da689c313, 2019-01-14)">
  <metadata
     id="metadata10">
    <rdf:RDF>
      <cc:Work
         rdf:about="">
        <dc:format>image/svg+xml</dc:format>
        <dc:type
           rdf:resource="http://purl.org/dc/dcmitype/StillImage" />
        <dc:title></dc:title>
      </cc:Work>
    </rdf:RDF>
  </metadata>
  <defs
     id="defs8">
    <linearGradient
       id="linearGradient2150"
       osb:paint="solid">
      <stop
         style="stop-color:#0066cc;stop-opacity:1;"
         offset="0"
         id="stop2148" />
    </linearGradient>
    <clipPath
       clipPathUnits="userSpaceOnUse"
       id="clipPath1558">
      <use
         x="0"
         y="0"
         xlink:href="#g1554"
         id="use1560"
         width="100%"
         height="100%" />
    </clipPath>
  </defs>
  <sodipodi:namedview
     pagecolor="#ffffff"
     bordercolor="#666666"
     borderopacity="1"
     objecttolerance="10"
     gridtolerance="10"
     guidetolerance="10"
     inkscape:pageopacity="0"
     inkscape:pageshadow="2"
     inkscape:window-width="1964"
     inkscape:window-height="1065"
     id="namedview6"
     showgrid="false"
     inkscape:zoom="3.6875"
     inkscape:cx="-58.033898"
     inkscape:cy="32"
     inkscape:window-x="70"
     inkscape:window-y="27"
     inkscape:window-maximized="0"
     inkscape:current-layer="svg4"
     showguides="true"
     inkscape:guide-bbox="true">
    <sodipodi:guide
       position="32.813559,52.067797"
       orientation="1,0"
       id="guide1548"
       inkscape:locked="false" />
    <sodipodi:guide
       position="103.05085,32.542373"
       orientation="0,1"
       id="guide1550"
       inkscape:locked="false" />
  </sodipodi:namedview>
  <flowRoot
     xml:space="preserve"
     id="flowRoot1536"
     style="fill:#ffffff;fill-opacity:1;stroke:none;font-family:Ubuntu;font-style:normal;font-weight:normal;font-size:40px;line-height:1.25;letter-spacing:0px;word-spacing:0px;-inkscape-font-specification:Ubuntu;font-stretch:normal;font-variant:normal;"><flowRegion
       id="flowRegion1538"
       style="fill:#ffffff;fill-opacity:1;-inkscape-font-specification:Ubuntu;font-family:Ubuntu;font-weight:normal;font-style:normal;font-stretch:normal;font-variant:normal;"><rect
         id="rect1540"
         width="58.033897"
         height="46.101696"
         x="4.3389831"
         y="8.1355934"
         style="fill:#ffffff;fill-opacity:1;-inkscape-font-specification:Ubuntu;font-family:Ubuntu;font-weight:normal;font-style:normal;font-stretch:normal;font-variant:normal;" /></flowRegion><flowPara
       id="flowPara1542"></flowPara></flowRoot>  <g
     id="g2170">
    <rect
       y="-0.27118644"
       x="-0.27118644"
       height="64.81356"
       width="64.81356"
       id="rect1562"
       style="fill:#0066cc;fill-opacity:1;stroke:#ffffff;stroke-width:0;stroke-linejoin:bevel;stroke-miterlimit:4;stroke-dasharray:none;stroke-opacity:1" />
    <g
       style="fill:#fffffb;fill-opacity:1;stroke:none;stroke-opacity:1"
       clip-path="url(#clipPath1558)"
       id="g1556">
      <g
         style="fill:#fffffb;fill-opacity:1;stroke:none;stroke-opacity:1"
         id="g1554"
         inkscape:label="Clip">
        <g
           id="text1546"
           style="font-style:normal;font-variant:normal;font-weight:normal;font-stretch:normal;font-size:40px;line-height:1.25;font-family:'Ubuntu Condensed';-inkscape-font-specification:'Ubuntu Condensed, ';letter-spacing:0px;word-spacing:0px;fill:#fffffb;fill-opacity:1;stroke:none;stroke-opacity:1"
           aria-label="SoZ">
          <path
             inkscape:connector-curvature="0"
             id="path2156"
             style="font-style:normal;font-variant:normal;font-weight:normal;font-stretch:normal;font-size:48px;font-family:'Ubuntu Condensed';-inkscape-font-specification:'Ubuntu Condensed, ';fill:#fffffb;fill-opacity:1;stroke:none;stroke-opacity:1"
             d="m 9.7532206,45.057901 q 2.5920004,0 3.9840004,-1.44 1.44,-1.44 1.44,-3.888 0,-1.296 -0.432,-2.304 -0.432,-1.008 -1.152,-1.824 -0.672,-0.816 -1.584,-1.488 -0.912,-0.672 -1.872,-1.344 -1.1040004,-0.768 -2.3040004,-1.632 -1.2,-0.864 -2.208,-2.016 -0.96,-1.152 -1.584,-2.688 -0.624,-1.536 -0.624,-3.6 0,-2.016 0.672,-3.648 0.72,-1.632 1.92,-2.784 1.248,-1.152 2.928,-1.776 1.7280004,-0.624 3.6960004,-0.624 1.92,0 3.552,0.48 1.632,0.48 2.736,1.152 l -1.344,3.408 q -1.008,-0.672 -2.208,-1.008 -1.152,-0.384 -2.448,-0.384 -2.352,0 -3.7920004,1.296 -1.392,1.248 -1.392,3.696 0,1.344 0.432,2.352 0.48,1.008 1.2,1.824 0.7680004,0.816 1.7280004,1.488 1.008,0.672 2.112,1.392 1.104,0.72 2.256,1.584 1.152,0.864 2.064,2.016 0.96,1.104 1.536,2.64 0.624,1.488 0.624,3.552 0,1.872 -0.576,3.552 -0.576,1.68 -1.824,2.976 -1.2,1.248 -3.072,2.016 -1.824,0.72 -4.3200004,0.72 -2.304,0 -4.032,-0.528 -1.728,-0.528 -3.072,-1.392 l 1.344,-3.456 q 1.248,0.768 2.544,1.248 1.344,0.432 3.072,0.432 z" />
          <path
             inkscape:connector-curvature="0"
             id="path2158"
             style="font-style:normal;font-variant:normal;font-weight:normal;font-stretch:normal;font-size:48px;font-family:'Ubuntu Condensed';-inkscape-font-specification:'Ubuntu Condensed, ';fill:#fffffb;fill-opacity:1;stroke:none;stroke-opacity:1"
             d="m 41.669471,35.457901 q 0,2.976 -0.528,5.424 -0.528,2.4 -1.632,4.128 -1.056,1.728 -2.736,2.688 -1.632,0.96 -3.888,0.96 -2.256,0 -3.936,-0.96 -1.68,-0.96 -2.784,-2.688 -1.056,-1.728 -1.584,-4.128 -0.528,-2.448 -0.528,-5.424 0,-2.928 0.528,-5.376 0.528,-2.448 1.584,-4.176 1.104,-1.776 2.784,-2.736 1.68,-0.96 3.936,-0.96 2.256,0 3.888,0.96 1.68,0.96 2.736,2.736 1.104,1.728 1.632,4.176 0.528,2.448 0.528,5.376 z m -4.32,0 q 0,-2.112 -0.24,-3.84 -0.24,-1.776 -0.768,-3.024 -0.528,-1.296 -1.392,-1.968 -0.864,-0.72 -2.064,-0.72 -1.248,0 -2.112,0.72 -0.816,0.672 -1.392,1.968 -0.528,1.248 -0.768,3.024 -0.24,1.728 -0.24,3.84 0,2.112 0.24,3.888 0.24,1.728 0.768,2.976 0.576,1.248 1.392,1.968 0.864,0.672 2.112,0.672 1.2,0 2.064,-0.672 0.864,-0.72 1.392,-1.968 0.528,-1.248 0.768,-2.976 0.24,-1.776 0.24,-3.888 z" />
          <path
             inkscape:connector-curvature="0"
             id="path2160"
             style="font-style:normal;font-variant:normal;font-weight:normal;font-stretch:normal;font-size:48px;font-family:'Ubuntu Condensed';-inkscape-font-specification:'Ubuntu Condensed, ';fill:#fffffb;fill-opacity:1;stroke:none;stroke-opacity:1"
             d="m 62.688221,18.177901 q -1.44,2.544 -3.216,6 -1.776,3.408 -3.552,7.056 -1.728,3.6 -3.312,7.056 -1.536,3.456 -2.544,6.048 h 12.96 v 3.696 h -17.568 v -2.64 q 0.72,-1.92 1.68,-4.224 0.96,-2.304 2.064,-4.752 1.104,-2.496 2.256,-4.992 1.2,-2.496 2.352,-4.848 1.2,-2.352 2.256,-4.416 1.104,-2.112 2.016,-3.696 h -12 v -3.696 h 16.608 z" />
        </g>
      </g>
    </g>
  </g>
</svg>
