<?xml version="1.0" encoding="UTF-8" standalone="no"?>
<!-- Created with Inkscape (http://www.inkscape.org/) -->

<svg
   xmlns:dc="http://purl.org/dc/elements/1.1/"
   xmlns:cc="http://creativecommons.org/ns#"
   xmlns:rdf="http://www.w3.org/1999/02/22-rdf-syntax-ns#"
   xmlns:svg="http://www.w3.org/2000/svg"
   xmlns="http://www.w3.org/2000/svg"
   xmlns:xlink="http://www.w3.org/1999/xlink"
   xmlns:sodipodi="http://sodipodi.sourceforge.net/DTD/sodipodi-0.dtd"
   xmlns:inkscape="http://www.inkscape.org/namespaces/inkscape"
   width="210mm"
   height="297mm"
   viewBox="0 0 210 297"
   version="1.1"
   id="svg5358"
   inkscape:version="0.92.5 (2060ec1f9f, 2020-04-08)"
   sodipodi:docname="splash.svg">
  <defs
     id="defs5352">
    <linearGradient
       inkscape:collect="always"
       id="linearGradient7432">
      <stop
         style="stop-color:#000097;stop-opacity:1;"
         offset="0"
         id="stop7428" />
      <stop
         style="stop-color:#000097;stop-opacity:0;"
         offset="1"
         id="stop7430" />
    </linearGradient>
    <linearGradient
       inkscape:collect="always"
       xlink:href="#linearGradient5322"
       id="linearGradient5324"
       x1="165.17038"
       y1="289.18912"
       x2="311.73798"
       y2="41.433529"
       gradientUnits="userSpaceOnUse"
       gradientTransform="matrix(0.26458333,0,0,0.26458333,65.345744,97.284372)" />
    <linearGradient
       inkscape:collect="always"
       id="linearGradient5322">
      <stop
         style="stop-color:#0066cc;stop-opacity:1;"
         offset="0"
         id="stop5318" />
      <stop
         style="stop-color:#0036cc;stop-opacity:0"
         offset="1"
         id="stop5320" />
    </linearGradient>
    <radialGradient
       inkscape:collect="always"
       xlink:href="#linearGradient7432"
       id="radialGradient7442"
       cx="111.80637"
       cy="142.02975"
       fx="111.80637"
       fy="142.02975"
       r="35.870888"
       gradientTransform="matrix(2.2361258,-0.05866117,0.02490122,0.94921798,-141.74345,13.771252)"
       gradientUnits="userSpaceOnUse" />
    <filter
       inkscape:collect="always"
       style="color-interpolation-filters:sRGB"
       id="filter8036"
       x="-0.077981325"
       width="1.1559626"
       y="-0.082973514"
       height="1.165947">
      <feGaussianBlur
         inkscape:collect="always"
         stdDeviation="2.3358958"
         id="feGaussianBlur8038" />
    </filter>
  </defs>
  <sodipodi:namedview
     id="base"
     pagecolor="#ffffff"
     bordercolor="#666666"
     borderopacity="1.0"
     inkscape:pageopacity="0.0"
     inkscape:pageshadow="2"
     inkscape:zoom="0.7"
     inkscape:cx="228.10853"
     inkscape:cy="684.14367"
     inkscape:document-units="mm"
     inkscape:current-layer="layer1"
     showgrid="false"
     inkscape:window-width="1479"
     inkscape:window-height="1373"
     inkscape:window-x="1081"
     inkscape:window-y="30"
     inkscape:window-maximized="0" />
  <metadata
     id="metadata5355">
    <rdf:RDF>
      <cc:Work
         rdf:about="">
        <dc:format>image/svg+xml</dc:format>
        <dc:type
           rdf:resource="http://purl.org/dc/dcmitype/StillImage" />
        <dc:title></dc:title>
      </cc:Work>
    </rdf:RDF>
  </metadata>
  <g
     inkscape:label="Ebene 1"
     inkscape:groupmode="layer"
     id="layer1">
    <rect
       style="opacity:0.44800002;fill:url(#linearGradient5324);fill-opacity:1;stroke:none;stroke-width:0.26499999;stroke-linecap:round;stroke-linejoin:bevel;stroke-miterlimit:4;stroke-dasharray:none;stroke-opacity:1;filter:url(#filter8036)"
       id="rect940"
       width="71.89093"
       height="67.565536"
       x="75.935486"
       y="108.24699" />
    <path
       style="fill:url(#radialGradient7442);fill-opacity:1;stroke:none;stroke-width:0.26430869px;stroke-linecap:butt;stroke-linejoin:miter;stroke-opacity:1"
       d="M 147.67726,175.81253 75.935488,108.24699 v 67.56554 z"
       id="path5316"
       inkscape:connector-curvature="0" />
    <path
       style="fill:#ffffff;fill-opacity:1;stroke:none;stroke-width:0.26458332px;stroke-linecap:butt;stroke-linejoin:miter;stroke-opacity:1"
       d="m 96.667518,132.37221 5.332162,-2.722 0.33559,19.5761 c 0,0 -0.18644,1.26779 -0.6339,1.64067 -0.44745,0.37288 -5.667746,3.87793 -5.667746,3.87793 0,0 1.715241,2.05083 4.138946,2.461 2.42371,0.41016 4.10166,0.22372 4.10166,0.22372 l -0.11186,-28.26417 c 0,0 -3.57963,-1.93897 -5.332158,-2.49828 -1.752529,-0.55932 -3.803359,-1.45423 -5.816902,-1.11864 -2.013542,0.33559 -4.549114,1.49152 -5.854188,2.94574 -1.305074,1.45423 -1.528801,2.98303 -0.410166,5.44402 -1.416938,-0.5966 -1.864392,-3.3559 -1.752528,-4.06437 0.111863,-0.70847 0.447454,-3.84065 2.423709,-5.92876 1.976254,-2.08812 5.705036,-3.80336 8.352473,-3.6915 2.647434,0.11187 7.08469,1.75253 8.12875,2.23727 1.04406,0.48474 4.2881,2.12541 5.36944,2.01355 1.08135,-0.11187 3.0576,-1.04406 3.09489,-2.01355 0.0373,-0.96948 -0.85762,-2.49828 -1.49151,-2.90845 0.78304,-0.0746 1.78981,1.15592 1.86439,1.37965 0.0746,0.22373 1.00677,2.19998 0.22373,4.25081 -0.78305,2.05083 -3.3932,3.61692 -4.39997,3.84065 -1.00677,0.22373 -3.02031,0.2983 -3.02031,0.2983 l -0.14915,27.74214 c 0,0 1.86439,0.11187 2.83387,-0.85762 0.96949,-0.96948 1.90168,-2.83387 2.1627,-3.84064 0.18644,0.67118 -0.48474,3.3559 -1.41694,4.5864 -0.9322,1.2305 -4.77284,4.51183 -10.254152,4.66098 -5.481311,0.14915 -11.559226,-6.78639 -12.565997,-12.60329 -1.006772,-5.8169 0.298302,-10.36601 1.603376,-12.90158 1.305074,-2.53557 3.355904,-6.67453 10.962621,-7.56943 -0.410167,0.52203 -2.237271,1.71524 -3.094889,2.87116 -0.85762,1.15592 -4.735555,5.07114 -4.176237,11.85753 0.559317,6.78638 4.250813,10.77618 4.250813,10.77618 l 1.081346,-0.74576 z"
       id="path925"
       inkscape:connector-curvature="0" />
    <path
       inkscape:connector-curvature="0"
       style="fill:#ffffff;fill-opacity:1;stroke:none;stroke-width:0.26458332px;stroke-linecap:butt;stroke-linejoin:miter;stroke-opacity:1"
       d="m 121.927,119.09172 c -3.20675,0 -6.74943,0.6335 -7.71891,3.28094 -0.96948,2.64743 -0.0743,4.81049 1.08159,5.55625 1.15592,0.74576 4.92218,0.26097 4.92218,0.26097 l -0.14935,-0.82063 h -3.13211 c 0,0 -2.2375,-0.85745 -2.27479,-2.46083 -0.0373,-1.60337 0.93254,-3.05761 2.46135,-3.0949 1.52879,-0.0373 5.70287,2.248 5.22035,4.62349 -0.96948,4.77284 -5.14594,25.54211 -5.14594,25.54211 0,0 -5.2578,1.30531 -5.14594,5.85442 0.11186,4.54912 2.75931,5.48156 5.48132,5.3697 2.72201,-0.11186 4.54908,-1.30534 4.54908,-1.30534 l -0.0372,-1.00666 c 0,0 -2.16261,1.49138 -4.81004,1.49138 -2.64744,0 -4.06427,-2.16246 -4.10156,-3.20652 -0.0373,-1.04406 1.3794,-3.39351 3.69125,-3.4308 2.31184,-0.0373 3.54233,3.57997 3.57962,4.13928 0.67118,-0.74575 4.84777,-6.26473 4.84777,-6.26473 l -0.55966,-0.7829 -1.30483,1.86449 c 0,0 -1.1186,-1.678 -2.16266,-2.12546 -1.04406,-0.44745 -3.31866,-0.55913 -3.31866,-0.55913 l 1.04387,-4.43746 7.49515,0.0744 1.67793,9.76943 3.16932,3.02049 4.84725,-6.07818 -0.11163,-0.93173 -1.56631,1.9389 c 0,0 -1.0811,-0.74603 -1.30483,-1.30534 -0.22372,-0.55932 -4.66105,-26.36259 -4.73563,-27.14563 -0.0746,-0.78305 -0.29814,-2.68445 1.1188,-3.46749 1.41694,-0.78305 2.53547,-0.14936 2.90835,0.33538 0,-0.59661 -0.63399,-1.78948 -1.86449,-1.82676 -1.2305,-0.0373 -3.24423,1.5285 -3.72897,1.56579 -0.48474,0.0373 -1.71491,-4.43694 -4.92166,-4.43694 z m 0.59635,11.44737 2.94607,12.37909 -5.33249,-0.18604 z"
       id="path929" />
  </g>
</svg>
